<?xml version="1.0" encoding="UTF-8" standalone="no"?>
<!DOCTYPE svg PUBLIC "-//W3C//DTD SVG 1.1//EN"
 "http://www.w3.org/Graphics/SVG/1.1/DTD/svg11.dtd">
<!-- Generated by graphviz version 2.43.0 (0)
 -->
<!-- Title: %3 Pages: 1 -->
<svg width="1408pt" height="332pt"
 viewBox="0.00 0.00 1408.12 332.00" xmlns="http://www.w3.org/2000/svg" xmlns:xlink="http://www.w3.org/1999/xlink">
<g id="graph0" class="graph" transform="scale(1 1) rotate(0) translate(4 328)">
<title>%3</title>
<polygon fill="white" stroke="transparent" points="-4,4 -4,-328 1404.12,-328 1404.12,4 -4,4"/>
<!-- [root] local_file.key_details (expand) -->
<g id="node1" class="node">
<title>[root] local_file.key_details (expand)</title>
<polygon fill="none" stroke="black" points="754.93,-180 592.93,-180 592.93,-144 754.93,-144 754.93,-180"/>
<text text-anchor="middle" x="673.93" y="-158.3" font-family="Times,serif" font-size="14.00">local_file.key_details</text>
</g>
<!-- [root] provider[&quot;registry.terraform.io/hashicorp/local&quot;] -->
<g id="node2" class="node">
<title>[root] provider[&quot;registry.terraform.io/hashicorp/local&quot;]</title>
<polygon fill="none" stroke="black" points="648.93,-108 318.98,-90 648.93,-72 978.89,-90 648.93,-108"/>
<text text-anchor="middle" x="648.93" y="-86.3" font-family="Times,serif" font-size="14.00">provider[&quot;registry.terraform.io/hashicorp/local&quot;]</text>
</g>
<!-- [root] local_file.key_details (expand)&#45;&gt;[root] provider[&quot;registry.terraform.io/hashicorp/local&quot;] -->
<g id="edge1" class="edge">
<title>[root] local_file.key_details (expand)&#45;&gt;[root] provider[&quot;registry.terraform.io/hashicorp/local&quot;]</title>
<path fill="none" stroke="black" d="M667.75,-143.7C664.93,-135.81 661.54,-126.3 658.41,-117.55"/>
<polygon fill="black" stroke="black" points="661.7,-116.34 655.04,-108.1 655.11,-118.7 661.7,-116.34"/>
</g>
<!-- [root] tls_private_key.pvtkey (expand) -->
<g id="node4" class="node">
<title>[root] tls_private_key.pvtkey (expand)</title>
<polygon fill="none" stroke="black" points="1170.93,-108 996.93,-108 996.93,-72 1170.93,-72 1170.93,-108"/>
<text text-anchor="middle" x="1083.93" y="-86.3" font-family="Times,serif" font-size="14.00">tls_private_key.pvtkey</text>
</g>
<!-- [root] local_file.key_details (expand)&#45;&gt;[root] tls_private_key.pvtkey (expand) -->
<g id="edge2" class="edge">
<title>[root] local_file.key_details (expand)&#45;&gt;[root] tls_private_key.pvtkey (expand)</title>
<path fill="none" stroke="black" d="M754.96,-147.51C815.97,-137.31 901.95,-122.84 986.75,-108.2"/>
<polygon fill="black" stroke="black" points="987.56,-111.61 996.81,-106.46 986.36,-104.71 987.56,-111.61"/>
</g>
<!-- [root] provider[&quot;registry.terraform.io/hashicorp/tls&quot;] -->
<g id="node3" class="node">
<title>[root] provider[&quot;registry.terraform.io/hashicorp/tls&quot;]</title>
<polygon fill="none" stroke="black" points="1083.93,-36 767.55,-18 1083.93,0 1400.31,-18 1083.93,-36"/>
<text text-anchor="middle" x="1083.93" y="-14.3" font-family="Times,serif" font-size="14.00">provider[&quot;registry.terraform.io/hashicorp/tls&quot;]</text>
</g>
<!-- [root] tls_private_key.pvtkey (expand)&#45;&gt;[root] provider[&quot;registry.terraform.io/hashicorp/tls&quot;] -->
<g id="edge9" class="edge">
<title>[root] tls_private_key.pvtkey (expand)&#45;&gt;[root] provider[&quot;registry.terraform.io/hashicorp/tls&quot;]</title>
<path fill="none" stroke="black" d="M1083.93,-71.7C1083.93,-63.98 1083.93,-54.71 1083.93,-46.11"/>
<polygon fill="black" stroke="black" points="1087.43,-46.1 1083.93,-36.1 1080.43,-46.1 1087.43,-46.1"/>
</g>
<!-- [root] meta.count&#45;boundary (EachMode fixup) -->
<g id="node5" class="node">
<title>[root] meta.count&#45;boundary (EachMode fixup)</title>
<ellipse fill="none" stroke="black" cx="222.93" cy="-234" rx="222.86" ry="18"/>
<text text-anchor="middle" x="222.93" y="-230.3" font-family="Times,serif" font-size="14.00">[root] meta.count&#45;boundary (EachMode fixup)</text>
</g>
<!-- [root] meta.count&#45;boundary (EachMode fixup)&#45;&gt;[root] local_file.key_details (expand) -->
<g id="edge3" class="edge">
<title>[root] meta.count&#45;boundary (EachMode fixup)&#45;&gt;[root] local_file.key_details (expand)</title>
<path fill="none" stroke="black" d="M320.79,-217.81C398.64,-205.73 506.76,-188.95 582.79,-177.15"/>
<polygon fill="black" stroke="black" points="583.49,-180.58 592.84,-175.59 582.42,-173.66 583.49,-180.58"/>
</g>
<!-- [root] provider[&quot;registry.terraform.io/hashicorp/local&quot;] (close) -->
<g id="node6" class="node">
<title>[root] provider[&quot;registry.terraform.io/hashicorp/local&quot;] (close)</title>
<ellipse fill="none" stroke="black" cx="759.93" cy="-234" rx="295.95" ry="18"/>
<text text-anchor="middle" x="759.93" y="-230.3" font-family="Times,serif" font-size="14.00">[root] provider[&quot;registry.terraform.io/hashicorp/local&quot;] (close)</text>
</g>
<!-- [root] provider[&quot;registry.terraform.io/hashicorp/local&quot;] (close)&#45;&gt;[root] local_file.key_details (expand) -->
<g id="edge4" class="edge">
<title>[root] provider[&quot;registry.terraform.io/hashicorp/local&quot;] (close)&#45;&gt;[root] local_file.key_details (expand)</title>
<path fill="none" stroke="black" d="M738.67,-215.7C727.84,-206.88 714.51,-196.03 702.77,-186.47"/>
<polygon fill="black" stroke="black" points="704.91,-183.7 694.94,-180.1 700.49,-189.13 704.91,-183.7"/>
</g>
<!-- [root] provider[&quot;registry.terraform.io/hashicorp/tls&quot;] (close) -->
<g id="node7" class="node">
<title>[root] provider[&quot;registry.terraform.io/hashicorp/tls&quot;] (close)</title>
<ellipse fill="none" stroke="black" cx="1083.93" cy="-162" rx="285.95" ry="18"/>
<text text-anchor="middle" x="1083.93" y="-158.3" font-family="Times,serif" font-size="14.00">[root] provider[&quot;registry.terraform.io/hashicorp/tls&quot;] (close)</text>
</g>
<!-- [root] provider[&quot;registry.terraform.io/hashicorp/tls&quot;] (close)&#45;&gt;[root] tls_private_key.pvtkey (expand) -->
<g id="edge5" class="edge">
<title>[root] provider[&quot;registry.terraform.io/hashicorp/tls&quot;] (close)&#45;&gt;[root] tls_private_key.pvtkey (expand)</title>
<path fill="none" stroke="black" d="M1083.93,-143.7C1083.93,-135.98 1083.93,-126.71 1083.93,-118.11"/>
<polygon fill="black" stroke="black" points="1087.43,-118.1 1083.93,-108.1 1080.43,-118.1 1087.43,-118.1"/>
</g>
<!-- [root] root -->
<g id="node8" class="node">
<title>[root] root</title>
<ellipse fill="none" stroke="black" cx="759.93" cy="-306" rx="58.49" ry="18"/>
<text text-anchor="middle" x="759.93" y="-302.3" font-family="Times,serif" font-size="14.00">[root] root</text>
</g>
<!-- [root] root&#45;&gt;[root] meta.count&#45;boundary (EachMode fixup) -->
<g id="edge6" class="edge">
<title>[root] root&#45;&gt;[root] meta.count&#45;boundary (EachMode fixup)</title>
<path fill="none" stroke="black" d="M706.97,-298.1C623.43,-287.21 458.86,-265.75 344.96,-250.91"/>
<polygon fill="black" stroke="black" points="345.16,-247.4 334.79,-249.58 344.26,-254.35 345.16,-247.4"/>
</g>
<!-- [root] root&#45;&gt;[root] provider[&quot;registry.terraform.io/hashicorp/local&quot;] (close) -->
<g id="edge7" class="edge">
<title>[root] root&#45;&gt;[root] provider[&quot;registry.terraform.io/hashicorp/local&quot;] (close)</title>
<path fill="none" stroke="black" d="M759.93,-287.7C759.93,-279.98 759.93,-270.71 759.93,-262.11"/>
<polygon fill="black" stroke="black" points="763.43,-262.1 759.93,-252.1 756.43,-262.1 763.43,-262.1"/>
</g>
<!-- [root] root&#45;&gt;[root] provider[&quot;registry.terraform.io/hashicorp/tls&quot;] (close) -->
<g id="edge8" class="edge">
<title>[root] root&#45;&gt;[root] provider[&quot;registry.terraform.io/hashicorp/tls&quot;] (close)</title>
<path fill="none" stroke="black" d="M817.36,-302.51C895.72,-297.91 1030.37,-285.26 1064.93,-252 1081.33,-236.21 1085.29,-210 1085.62,-190.1"/>
<polygon fill="black" stroke="black" points="1089.12,-190.03 1085.49,-180.08 1082.12,-190.12 1089.12,-190.03"/>
</g>
</g>
</svg>
